<svg xmlns="http://www.w3.org/2000/svg" width="780" height="590" viewBox="0 0 780 590"><rect width="780" height="590" fill="white"/><text x="390" y="24" font-family="Helvetica,Arial" font-size="17" font-weight="bold" fill="#172b4d" text-anchor="middle">Differential cascode pair on Ri-programmed FVF tail sink</text><line x1="70" y1="46" x2="720" y2="46" stroke="#222" stroke-width="3"/><text x="60" y="51" font-family="Helvetica,Arial" font-size="15" fill="#172b4d" text-anchor="end" font-weight="bold">VDD</text><line x1="120" y1="540" x2="660" y2="540" stroke="#222" stroke-width="3"/><path d="M 400 46 L 408 53.0 L 392 67.0 L 408 81.0 L 392 95.0 L 408 109.0 L 392 123.0 L 400 130" fill="none" stroke="#222" stroke-width="2"/><text x="418" y="93.0" font-family="Helvetica,Arial" font-size="14" fill="#172b4d" text-anchor="start" >RLL 40k</text><path d="M 640 46 L 648 53.0 L 632 67.0 L 648 81.0 L 632 95.0 L 648 109.0 L 632 123.0 L 640 130" fill="none" stroke="#222" stroke-width="2"/><text x="658" y="93.0" font-family="Helvetica,Arial" font-size="14" fill="#172b4d" text-anchor="start" >RLR 40k</text><line x1="392" y1="174" x2="392" y2="226" stroke="#222" stroke-width="2.5"/><line x1="392" y1="174" x2="402" y2="174" stroke="#222" stroke-width="2"/><line x1="392" y1="226" x2="402" y2="226" stroke="#222" stroke-width="2"/><line x1="402" y1="174" x2="402" y2="158" stroke="#222" stroke-width="2"/><line x1="402" y1="226" x2="402" y2="242" stroke="#222" stroke-width="2"/><path d="M 402 226 l 9 5 l -9 4 z" fill="#222"/><line x1="382" y1="180" x2="382" y2="220" stroke="#222" stroke-width="2.5"/><line x1="382" y1="200" x2="356" y2="200" stroke="#222" stroke-width="2"/><text x="420" y="205" font-family="Helvetica,Arial" font-size="14" fill="#172b4d" text-anchor="start" font-weight="bold">MDL</text><line x1="632" y1="174" x2="632" y2="226" stroke="#222" stroke-width="2.5"/><line x1="632" y1="174" x2="642" y2="174" stroke="#222" stroke-width="2"/><line x1="632" y1="226" x2="642" y2="226" stroke="#222" stroke-width="2"/><line x1="642" y1="174" x2="642" y2="158" stroke="#222" stroke-width="2"/><line x1="642" y1="226" x2="642" y2="242" stroke="#222" stroke-width="2"/><path d="M 642 226 l 9 5 l -9 4 z" fill="#222"/><line x1="622" y1="180" x2="622" y2="220" stroke="#222" stroke-width="2.5"/><line x1="622" y1="200" x2="596" y2="200" stroke="#222" stroke-width="2"/><text x="660" y="205" font-family="Helvetica,Arial" font-size="14" fill="#172b4d" text-anchor="start" font-weight="bold">MDR</text><line x1="400" y1="130" x2="400" y2="158" stroke="#222" stroke-width="2"/><circle cx="400" cy="130" r="3.4" fill="#222"/><line x1="640" y1="130" x2="640" y2="158" stroke="#222" stroke-width="2"/><circle cx="640" cy="130" r="3.4" fill="#222"/><text x="386" y="120" font-family="Helvetica,Arial" font-size="14" fill="#1f5fbf" text-anchor="end" font-weight="bold">Vo+</text><text x="654" y="120" font-family="Helvetica,Arial" font-size="14" fill="#d62728" text-anchor="start" font-weight="bold">Vo-</text><line x1="356" y1="200" x2="316" y2="200" stroke="#222" stroke-width="2"/><text x="310" y="205" font-family="Helvetica,Arial" font-size="14" fill="#172b4d" text-anchor="end" font-weight="bold">Vin+</text><line x1="596" y1="200" x2="556" y2="200" stroke="#222" stroke-width="2"/><text x="550" y="205" font-family="Helvetica,Arial" font-size="14" fill="#172b4d" text-anchor="end" font-weight="bold">Vin-</text><line x1="402" y1="242" x2="402" y2="280" stroke="#222" stroke-width="2"/><line x1="642" y1="242" x2="642" y2="280" stroke="#222" stroke-width="2"/><line x1="402" y1="280" x2="642" y2="280" stroke="#222" stroke-width="2"/><circle cx="520" cy="280" r="3.4" fill="#222"/><text x="520" y="272" font-family="Helvetica,Arial" font-size="13" fill="#00875a" text-anchor="middle" font-weight="bold">vtail</text><line x1="512" y1="304" x2="512" y2="356" stroke="#222" stroke-width="2.5"/><line x1="512" y1="304" x2="522" y2="304" stroke="#222" stroke-width="2"/><line x1="512" y1="356" x2="522" y2="356" stroke="#222" stroke-width="2"/><line x1="522" y1="304" x2="522" y2="288" stroke="#222" stroke-width="2"/><line x1="522" y1="356" x2="522" y2="372" stroke="#222" stroke-width="2"/><path d="M 522 356 l 9 5 l -9 4 z" fill="#222"/><line x1="502" y1="310" x2="502" y2="350" stroke="#222" stroke-width="2.5"/><line x1="502" y1="330" x2="476" y2="330" stroke="#222" stroke-width="2"/><text x="540" y="335" font-family="Helvetica,Arial" font-size="14" fill="#172b4d" text-anchor="start" font-weight="bold">Mc</text><line x1="522" y1="280" x2="522" y2="288" stroke="#222" stroke-width="2"/><line x1="522" y1="372" x2="522" y2="392" stroke="#222" stroke-width="2"/><circle cx="522" cy="392" r="3.4" fill="#222"/><text x="544" y="388" font-family="Helvetica,Arial" font-size="12" fill="#172b4d" text-anchor="start" >vt2</text><line x1="512" y1="414" x2="512" y2="466" stroke="#222" stroke-width="2.5"/><line x1="512" y1="414" x2="522" y2="414" stroke="#222" stroke-width="2"/><line x1="512" y1="466" x2="522" y2="466" stroke="#222" stroke-width="2"/><line x1="522" y1="414" x2="522" y2="398" stroke="#222" stroke-width="2"/><line x1="522" y1="466" x2="522" y2="482" stroke="#222" stroke-width="2"/><path d="M 522 466 l 9 5 l -9 4 z" fill="#222"/><line x1="502" y1="420" x2="502" y2="460" stroke="#222" stroke-width="2.5"/><line x1="502" y1="440" x2="476" y2="440" stroke="#222" stroke-width="2"/><text x="540" y="445" font-family="Helvetica,Arial" font-size="14" fill="#172b4d" text-anchor="start" font-weight="bold">Mb</text><line x1="522" y1="392" x2="522" y2="398" stroke="#222" stroke-width="2"/><line x1="522" y1="482" x2="522" y2="540" stroke="#222" stroke-width="2"/><circle cx="150" cy="90" r="16" fill="white" stroke="#222" stroke-width="2"/><line x1="150" y1="82" x2="150" y2="97" stroke="#222" stroke-width="2"/><path d="M 150 99 l 4 -7 l -8 0 z" fill="#222"/><text x="128" y="95" font-family="Helvetica,Arial" font-size="14" fill="#172b4d" text-anchor="end" >IB 10u</text><line x1="150" y1="46" x2="150" y2="74" stroke="#222" stroke-width="2"/><line x1="150" y1="106" x2="150" y2="150" stroke="#222" stroke-width="2"/><circle cx="150" cy="150" r="3.4" fill="#222"/><text x="128" y="155" font-family="Helvetica,Arial" font-size="14" fill="#8256d0" text-anchor="end" font-weight="bold">vb</text><path d="M 150 150 L 158 155.83333333333334 L 142 167.5 L 158 179.16666666666666 L 142 190.83333333333331 L 158 202.5 L 142 214.16666666666666 L 150 220" fill="none" stroke="#222" stroke-width="2"/><text x="168" y="190.0" font-family="Helvetica,Arial" font-size="14" fill="#172b4d" text-anchor="start" >Ri</text><circle cx="150" cy="240" r="3.4" fill="#222"/><text x="128" y="244" font-family="Helvetica,Arial" font-size="14" fill="#c86a00" text-anchor="end" font-weight="bold">vgs</text><line x1="150" y1="220" x2="150" y2="240" stroke="#222" stroke-width="2"/><line x1="142" y1="264" x2="142" y2="316" stroke="#222" stroke-width="2.5"/><line x1="142" y1="264" x2="152" y2="264" stroke="#222" stroke-width="2"/><line x1="142" y1="316" x2="152" y2="316" stroke="#222" stroke-width="2"/><line x1="152" y1="264" x2="152" y2="248" stroke="#222" stroke-width="2"/><line x1="152" y1="316" x2="152" y2="332" stroke="#222" stroke-width="2"/><path d="M 152 316 l 9 5 l -9 4 z" fill="#222"/><line x1="132" y1="270" x2="132" y2="310" stroke="#222" stroke-width="2.5"/><line x1="132" y1="290" x2="106" y2="290" stroke="#222" stroke-width="2"/><text x="170" y="295" font-family="Helvetica,Arial" font-size="14" fill="#172b4d" text-anchor="start" font-weight="bold">M2r</text><line x1="152" y1="240" x2="152" y2="248" stroke="#222" stroke-width="2"/><line x1="152" y1="332" x2="152" y2="352" stroke="#222" stroke-width="2"/><circle cx="152" cy="352" r="3.4" fill="#222"/><text x="174" y="348" font-family="Helvetica,Arial" font-size="12" fill="#172b4d" text-anchor="start" >vor</text><line x1="142" y1="374" x2="142" y2="426" stroke="#222" stroke-width="2.5"/><line x1="142" y1="374" x2="152" y2="374" stroke="#222" stroke-width="2"/><line x1="142" y1="426" x2="152" y2="426" stroke="#222" stroke-width="2"/><line x1="152" y1="374" x2="152" y2="358" stroke="#222" stroke-width="2"/><line x1="152" y1="426" x2="152" y2="442" stroke="#222" stroke-width="2"/><path d="M 152 426 l 9 5 l -9 4 z" fill="#222"/><line x1="132" y1="380" x2="132" y2="420" stroke="#222" stroke-width="2.5"/><line x1="132" y1="400" x2="106" y2="400" stroke="#222" stroke-width="2"/><text x="170" y="405" font-family="Helvetica,Arial" font-size="14" fill="#172b4d" text-anchor="start" font-weight="bold">M1r</text><line x1="152" y1="352" x2="152" y2="358" stroke="#222" stroke-width="2"/><line x1="152" y1="442" x2="152" y2="540" stroke="#222" stroke-width="2"/><polyline points="150,150 100,150 100,178" fill="none" stroke="#8256d0" stroke-width="2"/><polyline points="100,178 476,178" fill="none" stroke="#8256d0" stroke-width="2"/><polyline points="100,178 100,290 106,290" fill="none" stroke="#8256d0" stroke-width="2"/><polyline points="476,178 476,330 476,330" fill="none" stroke="#8256d0" stroke-width="2"/><text x="300" y="172" font-family="Helvetica,Arial" font-size="12" fill="#8256d0" text-anchor="middle" >vb bias bus</text><polyline points="150,240 88,240 88,262" fill="none" stroke="#c86a00" stroke-width="2"/><polyline points="88,262 452,262" fill="none" stroke="#c86a00" stroke-width="2"/><polyline points="88,262 88,400 106,400" fill="none" stroke="#c86a00" stroke-width="2"/><polyline points="452,262 452,440 476,440" fill="none" stroke="#c86a00" stroke-width="2"/><text x="300" y="256" font-family="Helvetica,Arial" font-size="12" fill="#c86a00" text-anchor="middle" >vgs bias bus</text></svg>